<?xml version="1.0" encoding="utf-8"?><!-- Uploaded to: SVG Repo, www.svgrepo.com, Generator: SVG Repo Mixer Tools -->
<svg fill="#000000" width="800px" height="800px" viewBox="0 0 1024 1024" xmlns="http://www.w3.org/2000/svg"><path d="M395.79 660.746H211.996l-84.759-84.749c-29.092-29.092-76.271-29.092-105.363.001-29.144 29.144-29.144 76.323-.051 105.415l106.639 106.639c14.263 14.277 33.393 21.908 53.212 21.76.121.009 158.154.028 158.154.028v192.512c0 11.311 9.169 20.48 20.48 20.48s20.48-9.169 20.48-20.48V789.36c0-11.311-9.169-20.48-20.48-20.48H182.247c-9.735.09-18.358-3.322-24.815-9.785L50.786 652.449c-13.096-13.096-13.096-34.341 0-47.438 13.148-13.148 34.392-13.148 47.489-.051l90.758 90.748a20.481 20.481 0 0014.481 5.998h191.503c.415.024.946.054 1.644.092h17.828c18.58 0 33.649 15.069 33.649 33.649v267.551c0 11.311 9.169 20.48 20.48 20.48s20.48-9.169 20.48-20.48V735.447c0-41.201-33.407-74.609-74.609-74.609h-17.054c-.415-.024-.946-.054-1.644-.092zm449.341 148.71c.365-.073.365-.073.423-.086-.361.097-.542.146-1.082.204.188-.031.394-.07.659-.119zm-.659.119c-.459.049-1.178.106-2.488.204 1.481-.076 1.892-.105 2.488-.204zm21.309-50.486L972.42 652.45c13.096-13.096 13.096-34.341 0-47.438-13.148-13.148-34.392-13.148-47.49-.05l-90.757 90.747a20.481 20.481 0 01-14.481 5.998H628.189c-.415.024-.946.054-1.644.092h-17.828c-18.58 0-33.649 15.069-33.649 33.649v267.551c0 11.311-9.169 20.48-20.48 20.48s-20.48-9.169-20.48-20.48V735.448c0-41.201 33.407-74.609 74.609-74.609h17.054c.415-.024.946-.054 1.644-.092h183.794l84.758-84.748c29.092-29.092 76.271-29.092 105.364 0 29.144 29.144 29.144 76.323.051 105.415L894.75 788.046c-14.332 14.346-33.566 21.981-53.211 21.767-.123.009-158.162.029-158.162.029v193.157c0 11.311-9.169 20.48-20.48 20.48s-20.48-9.169-20.48-20.48V789.362c0-11.311 9.169-20.48 20.48-20.48h178.104c9.692.09 18.315-3.322 24.779-9.792z"/><path d="M739.087 578.285c16.962 0 30.72-13.758 30.72-30.72v-331.1c0-16.968-13.754-30.72-30.72-30.72h-460.79c-16.966 0-30.72 13.752-30.72 30.72v331.1c0 16.962 13.758 30.72 30.72 30.72h460.79zm0 40.96h-460.79c-39.583 0-71.68-32.097-71.68-71.68v-331.1c0-39.591 32.094-71.68 71.68-71.68h460.79c39.586 0 71.68 32.089 71.68 71.68v331.1c0 39.583-32.097 71.68-71.68 71.68z"/><path d="M424.877 159.539V71.926c0-17.105 13.861-30.966 30.966-30.966H561.54c17.105 0 30.966 13.861 30.966 30.966v87.613c0 11.311 9.169 20.48 20.48 20.48s20.48-9.169 20.48-20.48V71.926C633.466 32.199 601.267 0 561.54 0H455.843c-39.727 0-71.926 32.199-71.926 71.926v87.613c0 11.311 9.169 20.48 20.48 20.48s20.48-9.169 20.48-20.48zm160.408 229.394H790.29c11.311 0 20.48-9.169 20.48-20.48s-9.169-20.48-20.48-20.48H585.285c-11.311 0-20.48 9.169-20.48 20.48s9.169 20.48 20.48 20.48zm-358.188 0h209.019c11.311 0 20.48-9.169 20.48-20.48s-9.169-20.48-20.48-20.48H227.097c-11.311 0-20.48 9.169-20.48 20.48s9.169 20.48 20.48 20.48z"/><path d="M557.529 394.185v-56.412H459.85v56.412h97.679zm0 40.96H459.85c-22.618 0-40.96-18.336-40.96-40.96v-56.412c0-22.624 18.342-40.96 40.96-40.96h97.679c22.626 0 40.96 18.334 40.96 40.96v56.412c0 22.626-18.334 40.96-40.96 40.96z"/></svg>